<svg width="32" height="28" viewBox="0 0 32 28" fill="none" xmlns="http://www.w3.org/2000/svg">
<g filter="url(#filter0_d)">
<path d="M21.205 1.00701C20.776 0.563011 20.062 0.563011 19.618 1.00701C19.189 1.43601 19.189 2.15001 19.618 2.57801L27.665 10.625H1.111C0.492 10.626 0 11.118 0 11.737C0 12.356 0.492 12.864 1.111 12.864H27.665L19.618 20.896C19.189 21.34 19.189 22.055 19.618 22.483C20.062 22.927 20.777 22.927 21.205 22.483L31.157 12.531C31.601 12.102 31.601 11.388 31.157 10.96L21.205 1.00701Z" fill="white"/>
</g>
<defs>
<filter id="filter0_d" x="-4" y="0.674011" width="39.49" height="30.142" filterUnits="userSpaceOnUse" color-interpolation-filters="sRGB">
<feFlood flood-opacity="0" result="BackgroundImageFix"/>
<feColorMatrix in="SourceAlpha" type="matrix" values="0 0 0 0 0 0 0 0 0 0 0 0 0 0 0 0 0 0 127 0"/>
<feOffset dy="4"/>
<feGaussianBlur stdDeviation="2"/>
<feColorMatrix type="matrix" values="0 0 0 0 0 0 0 0 0 0 0 0 0 0 0 0 0 0 0.25 0"/>
<feBlend mode="normal" in2="BackgroundImageFix" result="effect1_dropShadow"/>
<feBlend mode="normal" in="SourceGraphic" in2="effect1_dropShadow" result="shape"/>
</filter>
</defs>
</svg>
